<mxfile host="app.diagrams.net" agent="Mozilla/5.0 (Macintosh; Intel Mac OS X 10.15; rv:126.0) Gecko/20100101 Firefox/126.0" version="24.7.8">
  <diagram name="Page-1" id="rNXGwL2DkdGg4-doYV2x">
    <mxGraphModel dx="1187" dy="735" grid="1" gridSize="10" guides="1" tooltips="1" connect="1" arrows="1" fold="1" page="1" pageScale="1" pageWidth="827" pageHeight="1169" math="0" shadow="0">
      <root>
        <mxCell id="0" />
        <mxCell id="1" parent="0" />
        <mxCell id="r2DVbwVvgErSd23xD-P_-1" value="&lt;div&gt;SOAR EDR Playbook&lt;/div&gt;" style="whiteSpace=wrap;html=1;aspect=fixed;" vertex="1" parent="1">
          <mxGeometry x="360" y="40" width="80" height="80" as="geometry" />
        </mxCell>
        <mxCell id="r2DVbwVvgErSd23xD-P_-2" value="" style="verticalAlign=top;verticalLabelPosition=bottom;labelPosition=center;align=center;html=1;outlineConnect=0;fillColor=#f8cecc;strokeColor=#b85450;gradientDirection=north;strokeWidth=2;shape=mxgraph.networks.pc;" vertex="1" parent="1">
          <mxGeometry x="60" y="170" width="100" height="70" as="geometry" />
        </mxCell>
        <mxCell id="r2DVbwVvgErSd23xD-P_-3" value="Infected" style="text;html=1;align=center;verticalAlign=middle;resizable=0;points=[];autosize=1;strokeColor=none;fillColor=none;" vertex="1" parent="1">
          <mxGeometry x="75" y="248" width="70" height="30" as="geometry" />
        </mxCell>
        <mxCell id="r2DVbwVvgErSd23xD-P_-4" value="LimaCharlie" style="rounded=1;whiteSpace=wrap;html=1;fillColor=#dae8fc;strokeColor=#6c8ebf;" vertex="1" parent="1">
          <mxGeometry x="340" y="175" width="120" height="60" as="geometry" />
        </mxCell>
        <mxCell id="r2DVbwVvgErSd23xD-P_-6" value="Tines" style="rounded=1;whiteSpace=wrap;html=1;fillColor=#e1d5e7;strokeColor=#9673a6;" vertex="1" parent="1">
          <mxGeometry x="640" y="175" width="120" height="60" as="geometry" />
        </mxCell>
        <mxCell id="r2DVbwVvgErSd23xD-P_-18" value="&lt;div align=&quot;left&quot;&gt;Message with details contains:&lt;/div&gt;&lt;div align=&quot;left&quot;&gt;- Time&lt;br&gt;&lt;/div&gt;&lt;div align=&quot;left&quot;&gt;- Device Name&lt;/div&gt;&lt;div align=&quot;left&quot;&gt;- Source IP&lt;/div&gt;&lt;div align=&quot;left&quot;&gt;- Process&lt;/div&gt;&lt;div align=&quot;left&quot;&gt;- Command Line&lt;/div&gt;&lt;div align=&quot;left&quot;&gt;- File Path&lt;/div&gt;&lt;div align=&quot;left&quot;&gt;- Sensor ID&lt;/div&gt;&lt;div align=&quot;left&quot;&gt;- Link to the detection (if applicable)&lt;br&gt;&lt;/div&gt;" style="text;html=1;align=center;verticalAlign=middle;whiteSpace=wrap;rounded=0;" vertex="1" parent="1">
          <mxGeometry x="810" y="18" width="290" height="230" as="geometry" />
        </mxCell>
        <mxCell id="r2DVbwVvgErSd23xD-P_-23" value="" style="endArrow=classic;html=1;rounded=0;exitX=1;exitY=0.5;exitDx=0;exitDy=0;exitPerimeter=0;entryX=0;entryY=0.5;entryDx=0;entryDy=0;" edge="1" parent="1" source="r2DVbwVvgErSd23xD-P_-2" target="r2DVbwVvgErSd23xD-P_-4">
          <mxGeometry relative="1" as="geometry">
            <mxPoint x="200" y="204.55" as="sourcePoint" />
            <mxPoint x="300" y="204.55" as="targetPoint" />
          </mxGeometry>
        </mxCell>
        <mxCell id="r2DVbwVvgErSd23xD-P_-24" value="Detect HackTool" style="edgeLabel;resizable=0;html=1;;align=center;verticalAlign=middle;" connectable="0" vertex="1" parent="r2DVbwVvgErSd23xD-P_-23">
          <mxGeometry relative="1" as="geometry" />
        </mxCell>
        <mxCell id="r2DVbwVvgErSd23xD-P_-25" value="" style="endArrow=classic;html=1;rounded=0;exitX=1;exitY=0.5;exitDx=0;exitDy=0;entryX=0;entryY=0.5;entryDx=0;entryDy=0;" edge="1" parent="1" source="r2DVbwVvgErSd23xD-P_-4" target="r2DVbwVvgErSd23xD-P_-6">
          <mxGeometry relative="1" as="geometry">
            <mxPoint x="470" y="204.55" as="sourcePoint" />
            <mxPoint x="570" y="204.55" as="targetPoint" />
          </mxGeometry>
        </mxCell>
        <mxCell id="r2DVbwVvgErSd23xD-P_-26" value="Detection (Alert)" style="edgeLabel;resizable=0;html=1;;align=center;verticalAlign=middle;" connectable="0" vertex="1" parent="r2DVbwVvgErSd23xD-P_-25">
          <mxGeometry relative="1" as="geometry" />
        </mxCell>
        <mxCell id="r2DVbwVvgErSd23xD-P_-28" value="Slack" style="rounded=1;whiteSpace=wrap;html=1;fillColor=#ffe6cc;strokeColor=#d79b00;" vertex="1" parent="1">
          <mxGeometry x="340" y="370" width="120" height="60" as="geometry" />
        </mxCell>
        <mxCell id="r2DVbwVvgErSd23xD-P_-29" value="Email" style="rounded=1;whiteSpace=wrap;html=1;fillColor=#d5e8d4;strokeColor=#82b366;" vertex="1" parent="1">
          <mxGeometry x="920" y="370" width="120" height="60" as="geometry" />
        </mxCell>
        <mxCell id="r2DVbwVvgErSd23xD-P_-41" style="edgeStyle=orthogonalEdgeStyle;rounded=0;orthogonalLoop=1;jettySize=auto;html=1;exitX=0;exitY=0.5;exitDx=0;exitDy=0;entryX=0.5;entryY=0;entryDx=0;entryDy=0;" edge="1" parent="1" source="r2DVbwVvgErSd23xD-P_-30" target="r2DVbwVvgErSd23xD-P_-38">
          <mxGeometry relative="1" as="geometry" />
        </mxCell>
        <mxCell id="r2DVbwVvgErSd23xD-P_-42" style="edgeStyle=orthogonalEdgeStyle;rounded=0;orthogonalLoop=1;jettySize=auto;html=1;exitX=1;exitY=0.5;exitDx=0;exitDy=0;entryX=0.5;entryY=0;entryDx=0;entryDy=0;" edge="1" parent="1" source="r2DVbwVvgErSd23xD-P_-30" target="r2DVbwVvgErSd23xD-P_-39">
          <mxGeometry relative="1" as="geometry" />
        </mxCell>
        <mxCell id="r2DVbwVvgErSd23xD-P_-30" value="User Prompt" style="rounded=0;whiteSpace=wrap;html=1;" vertex="1" parent="1">
          <mxGeometry x="640" y="460" width="120" height="60" as="geometry" />
        </mxCell>
        <mxCell id="r2DVbwVvgErSd23xD-P_-31" value="" style="endArrow=classic;html=1;rounded=0;exitX=0;exitY=1;exitDx=0;exitDy=0;entryX=1;entryY=0;entryDx=0;entryDy=0;" edge="1" parent="1" source="r2DVbwVvgErSd23xD-P_-6" target="r2DVbwVvgErSd23xD-P_-28">
          <mxGeometry relative="1" as="geometry">
            <mxPoint x="540" y="320" as="sourcePoint" />
            <mxPoint x="640" y="320" as="targetPoint" />
          </mxGeometry>
        </mxCell>
        <mxCell id="r2DVbwVvgErSd23xD-P_-32" value="Send message with details" style="edgeLabel;resizable=0;html=1;;align=center;verticalAlign=middle;" connectable="0" vertex="1" parent="r2DVbwVvgErSd23xD-P_-31">
          <mxGeometry relative="1" as="geometry" />
        </mxCell>
        <mxCell id="r2DVbwVvgErSd23xD-P_-34" value="" style="endArrow=classic;html=1;rounded=0;exitX=1;exitY=1;exitDx=0;exitDy=0;entryX=0;entryY=0;entryDx=0;entryDy=0;" edge="1" parent="1" source="r2DVbwVvgErSd23xD-P_-6" target="r2DVbwVvgErSd23xD-P_-29">
          <mxGeometry relative="1" as="geometry">
            <mxPoint x="780" y="290" as="sourcePoint" />
            <mxPoint x="880" y="290" as="targetPoint" />
          </mxGeometry>
        </mxCell>
        <mxCell id="r2DVbwVvgErSd23xD-P_-35" value="Send message with details" style="edgeLabel;resizable=0;html=1;;align=center;verticalAlign=middle;" connectable="0" vertex="1" parent="r2DVbwVvgErSd23xD-P_-34">
          <mxGeometry relative="1" as="geometry" />
        </mxCell>
        <mxCell id="r2DVbwVvgErSd23xD-P_-36" value="" style="endArrow=classic;html=1;rounded=0;exitX=0.5;exitY=1;exitDx=0;exitDy=0;entryX=0.5;entryY=0;entryDx=0;entryDy=0;" edge="1" parent="1" source="r2DVbwVvgErSd23xD-P_-6" target="r2DVbwVvgErSd23xD-P_-30">
          <mxGeometry relative="1" as="geometry">
            <mxPoint x="690" y="390" as="sourcePoint" />
            <mxPoint x="790" y="390" as="targetPoint" />
          </mxGeometry>
        </mxCell>
        <mxCell id="r2DVbwVvgErSd23xD-P_-37" value="Does user want to isolate machine?" style="edgeLabel;resizable=0;html=1;;align=center;verticalAlign=middle;" connectable="0" vertex="1" parent="r2DVbwVvgErSd23xD-P_-36">
          <mxGeometry relative="1" as="geometry" />
        </mxCell>
        <mxCell id="r2DVbwVvgErSd23xD-P_-44" style="edgeStyle=orthogonalEdgeStyle;rounded=0;orthogonalLoop=1;jettySize=auto;html=1;exitX=0.5;exitY=1;exitDx=0;exitDy=0;entryX=0.5;entryY=0;entryDx=0;entryDy=0;" edge="1" parent="1" source="r2DVbwVvgErSd23xD-P_-38" target="r2DVbwVvgErSd23xD-P_-43">
          <mxGeometry relative="1" as="geometry" />
        </mxCell>
        <mxCell id="r2DVbwVvgErSd23xD-P_-38" value="YES" style="rhombus;whiteSpace=wrap;html=1;fillColor=#d5e8d4;strokeColor=#82b366;" vertex="1" parent="1">
          <mxGeometry x="560" y="640" width="80" height="80" as="geometry" />
        </mxCell>
        <mxCell id="r2DVbwVvgErSd23xD-P_-39" value="NO" style="rhombus;whiteSpace=wrap;html=1;fillColor=#f8cecc;strokeColor=#b85450;" vertex="1" parent="1">
          <mxGeometry x="760" y="640" width="80" height="80" as="geometry" />
        </mxCell>
        <mxCell id="r2DVbwVvgErSd23xD-P_-43" value="LimaCharlie" style="rounded=1;whiteSpace=wrap;html=1;fillColor=#dae8fc;strokeColor=#6c8ebf;" vertex="1" parent="1">
          <mxGeometry x="540" y="840" width="120" height="60" as="geometry" />
        </mxCell>
        <mxCell id="r2DVbwVvgErSd23xD-P_-45" value="Slack" style="rounded=1;whiteSpace=wrap;html=1;fillColor=#ffe6cc;strokeColor=#d79b00;" vertex="1" parent="1">
          <mxGeometry x="740" y="840" width="120" height="60" as="geometry" />
        </mxCell>
        <mxCell id="r2DVbwVvgErSd23xD-P_-46" value="" style="endArrow=classic;html=1;rounded=0;exitX=0.5;exitY=1;exitDx=0;exitDy=0;entryX=0.5;entryY=0;entryDx=0;entryDy=0;" edge="1" parent="1" source="r2DVbwVvgErSd23xD-P_-39" target="r2DVbwVvgErSd23xD-P_-45">
          <mxGeometry relative="1" as="geometry">
            <mxPoint x="780" y="760" as="sourcePoint" />
            <mxPoint x="880" y="760" as="targetPoint" />
          </mxGeometry>
        </mxCell>
        <mxCell id="r2DVbwVvgErSd23xD-P_-47" value="&quot;The device &amp;lt;device&amp;gt; was not isolated, please investigate.&quot;" style="edgeLabel;resizable=0;html=1;;align=center;verticalAlign=middle;" connectable="0" vertex="1" parent="r2DVbwVvgErSd23xD-P_-46">
          <mxGeometry relative="1" as="geometry" />
        </mxCell>
        <mxCell id="r2DVbwVvgErSd23xD-P_-48" value="" style="verticalAlign=top;verticalLabelPosition=bottom;labelPosition=center;align=center;html=1;outlineConnect=0;fillColor=#fad7ac;strokeColor=#b46504;gradientDirection=north;strokeWidth=2;shape=mxgraph.networks.pc;" vertex="1" parent="1">
          <mxGeometry x="280" y="835" width="100" height="70" as="geometry" />
        </mxCell>
        <mxCell id="r2DVbwVvgErSd23xD-P_-49" value="" style="endArrow=classic;html=1;rounded=0;exitX=0;exitY=0.5;exitDx=0;exitDy=0;entryX=1;entryY=0.5;entryDx=0;entryDy=0;entryPerimeter=0;" edge="1" parent="1" source="r2DVbwVvgErSd23xD-P_-43" target="r2DVbwVvgErSd23xD-P_-48">
          <mxGeometry relative="1" as="geometry">
            <mxPoint x="420" y="870" as="sourcePoint" />
            <mxPoint x="520" y="870" as="targetPoint" />
          </mxGeometry>
        </mxCell>
        <mxCell id="r2DVbwVvgErSd23xD-P_-50" value="Isolate Machine" style="edgeLabel;resizable=0;html=1;;align=center;verticalAlign=middle;" connectable="0" vertex="1" parent="r2DVbwVvgErSd23xD-P_-49">
          <mxGeometry relative="1" as="geometry" />
        </mxCell>
        <mxCell id="r2DVbwVvgErSd23xD-P_-51" value="Slack" style="rounded=1;whiteSpace=wrap;html=1;fillColor=#ffe6cc;strokeColor=#d79b00;" vertex="1" parent="1">
          <mxGeometry x="540" y="1010" width="120" height="60" as="geometry" />
        </mxCell>
        <mxCell id="r2DVbwVvgErSd23xD-P_-52" value="" style="endArrow=classic;html=1;rounded=0;exitX=0.5;exitY=1;exitDx=0;exitDy=0;entryX=0.5;entryY=0;entryDx=0;entryDy=0;" edge="1" parent="1" source="r2DVbwVvgErSd23xD-P_-43" target="r2DVbwVvgErSd23xD-P_-51">
          <mxGeometry relative="1" as="geometry">
            <mxPoint x="560" y="950" as="sourcePoint" />
            <mxPoint x="660" y="950" as="targetPoint" />
          </mxGeometry>
        </mxCell>
        <mxCell id="r2DVbwVvgErSd23xD-P_-53" value="Isolation status &amp;amp; &quot;The device &amp;lt;device&amp;gt; has been isolated.&quot;" style="edgeLabel;resizable=0;html=1;;align=center;verticalAlign=middle;" connectable="0" vertex="1" parent="r2DVbwVvgErSd23xD-P_-52">
          <mxGeometry relative="1" as="geometry" />
        </mxCell>
      </root>
    </mxGraphModel>
  </diagram>
</mxfile>
